<?xml version="1.0"?>
<svg xmlns="http://www.w3.org/2000/svg" xmlns:xlink="http://www.w3.org/1999/xlink" xmlns:svgjs="http://svgjs.com/svgjs" version="1.1" width="512" height="512" x="0" y="0" viewBox="0 0 63.48 63.48" style="enable-background:new 0 0 512 512" xml:space="preserve" class=""><g>
<g xmlns="http://www.w3.org/2000/svg">
	<g id="group-62svg">
		<path id="path-1_109_" style="" d="M58.99,63.48l-24-16.841l-24,16.841V7.691C10.99,5.366,12.952,3,15.277,3h40    c2.326,0,3.713,2.366,3.713,4.691V63.48z" fill="#1da1f2" data-original="#8b71b5" class=""/>
		<path id="path-2_109_" d="M54.49,62.98c-0.303,0-0.605-0.091-0.862-0.272L30.49,46.471L7.352,62.708    c-0.458,0.323-1.057,0.362-1.554,0.103C5.301,62.553,4.99,62.04,4.99,61.48V5.691C4.99,2.394,7.214,0,10.277,0h40    c3.15,0,5.713,2.553,5.713,5.691V61.48c0,0.56-0.312,1.073-0.808,1.331C54.964,62.925,54.727,62.98,54.49,62.98z M30.49,43.139    c0.302,0,0.603,0.09,0.862,0.272L52.99,58.596V5.691C52.99,4.207,51.773,3,50.277,3h-40C8.697,3,7.99,4.351,7.99,5.691v52.905    l21.638-15.185C29.887,43.229,30.188,43.139,30.49,43.139z" fill="#efefef" data-original="#000000" style="" class=""/>
		<path id="path-3_108_" d="M51.99,12h-46c-0.829,0-1.5-0.672-1.5-1.5S5.161,9,5.99,9h46c0.829,0,1.5,0.672,1.5,1.5    S52.819,12,51.99,12z" fill="#efefef" data-original="#000000" style="" class=""/>
		<path id="path-4_106_" d="M29.49,34.5c-0.829,0-1.5-0.672-1.5-1.5V23c0-0.828,0.671-1.5,1.5-1.5s1.5,0.672,1.5,1.5v10    C30.99,33.828,30.319,34.5,29.49,34.5z" fill="#efefef" data-original="#000000" style="" class=""/>
		<path id="path-5_96_" d="M34.99,30h-10c-0.829,0-1.5-0.672-1.5-1.5s0.671-1.5,1.5-1.5h10c0.829,0,1.5,0.672,1.5,1.5    S35.819,30,34.99,30z" fill="#efefef" data-original="#000000" style="" class=""/>
	</g>
</g>
<g xmlns="http://www.w3.org/2000/svg">
</g>
<g xmlns="http://www.w3.org/2000/svg">
</g>
<g xmlns="http://www.w3.org/2000/svg">
</g>
<g xmlns="http://www.w3.org/2000/svg">
</g>
<g xmlns="http://www.w3.org/2000/svg">
</g>
<g xmlns="http://www.w3.org/2000/svg">
</g>
<g xmlns="http://www.w3.org/2000/svg">
</g>
<g xmlns="http://www.w3.org/2000/svg">
</g>
<g xmlns="http://www.w3.org/2000/svg">
</g>
<g xmlns="http://www.w3.org/2000/svg">
</g>
<g xmlns="http://www.w3.org/2000/svg">
</g>
<g xmlns="http://www.w3.org/2000/svg">
</g>
<g xmlns="http://www.w3.org/2000/svg">
</g>
<g xmlns="http://www.w3.org/2000/svg">
</g>
<g xmlns="http://www.w3.org/2000/svg">
</g>
</g></svg>
