<?xml version="1.0"?>
<svg xmlns="http://www.w3.org/2000/svg" xmlns:xlink="http://www.w3.org/1999/xlink" xmlns:svgjs="http://svgjs.com/svgjs" version="1.1" width="512" height="512" x="0" y="0" viewBox="0 0 512 512" style="enable-background:new 0 0 512 512" xml:space="preserve" class=""><g>
<path xmlns="http://www.w3.org/2000/svg" style="" d="M480,112H0v320c0,17.673,14.327,32,32,32h448c17.673,0,32-14.327,32-32V144  C512,126.327,497.673,112,480,112z" fill="#eceff1" data-original="#eceff1"/>
<path xmlns="http://www.w3.org/2000/svg" style="" d="M187.328,52.672c-3.006-2.999-7.082-4.68-11.328-4.672H32C14.327,48,0,62.327,0,80v32h246.624  L187.328,52.672z" fill="#cfd8dc" data-original="#cfd8dc" class=""/>
<path xmlns="http://www.w3.org/2000/svg" style="" d="M400,336c-4.246,0.008-8.322-1.673-11.328-4.672L352,294.624l-36.672,36.704  c-6.24,6.256-16.371,6.269-22.627,0.029c-3.016-3.009-4.708-7.096-4.701-11.357V160c0-26.51,21.49-48,48-48h112  c-17.673,0-32,14.327-32,32v176c-0.001,6.475-3.904,12.311-9.888,14.784C404.172,335.58,402.097,335.993,400,336z" fill="#1da1f2" data-original="#2196f3" class=""/>
<path xmlns="http://www.w3.org/2000/svg" d="M480,464H32c-17.673,0-32-14.327-32-32V80c0-17.673,14.327-32,32-32h144c4.246-0.008,8.322,1.673,11.328,4.672L246.624,112  H480c17.673,0,32,14.327,32,32v288C512,449.673,497.673,464,480,464z M32,80v352h448V144H240c-4.246,0.008-8.322-1.673-11.328-4.672  L169.376,80H32z" fill="#000000" data-original="#000000" style="" class=""/>
<path xmlns="http://www.w3.org/2000/svg" d="M400,336c-4.246,0.008-8.322-1.673-11.328-4.672L352,294.624l-36.672,36.704c-6.24,6.256-16.371,6.269-22.627,0.029  c-3.016-3.009-4.708-7.096-4.701-11.357V160c0-26.51,21.49-48,48-48h112c8.837,0,16,7.163,16,16s-7.163,16-16,16h-16  c-8.837,0-16,7.163-16,16v160c-0.001,6.475-3.904,12.311-9.888,14.784C404.177,335.595,402.098,336.009,400,336z M352,256  c4.246-0.008,8.322,1.673,11.328,4.672L384,281.376V160c-0.01-5.452,0.921-10.865,2.752-16H336c-8.837,0-16,7.163-16,16v121.376  l20.672-20.704C343.678,257.673,347.754,255.992,352,256z" fill="#000000" data-original="#000000" style="" class=""/>
<g xmlns="http://www.w3.org/2000/svg">
</g>
<g xmlns="http://www.w3.org/2000/svg">
</g>
<g xmlns="http://www.w3.org/2000/svg">
</g>
<g xmlns="http://www.w3.org/2000/svg">
</g>
<g xmlns="http://www.w3.org/2000/svg">
</g>
<g xmlns="http://www.w3.org/2000/svg">
</g>
<g xmlns="http://www.w3.org/2000/svg">
</g>
<g xmlns="http://www.w3.org/2000/svg">
</g>
<g xmlns="http://www.w3.org/2000/svg">
</g>
<g xmlns="http://www.w3.org/2000/svg">
</g>
<g xmlns="http://www.w3.org/2000/svg">
</g>
<g xmlns="http://www.w3.org/2000/svg">
</g>
<g xmlns="http://www.w3.org/2000/svg">
</g>
<g xmlns="http://www.w3.org/2000/svg">
</g>
<g xmlns="http://www.w3.org/2000/svg">
</g>
</g></svg>
