<?xml version="1.0"?>
<svg xmlns="http://www.w3.org/2000/svg" xmlns:xlink="http://www.w3.org/1999/xlink" xmlns:svgjs="http://svgjs.com/svgjs" version="1.1" width="512" height="512" x="0" y="0" viewBox="0 0 496 496" style="enable-background:new 0 0 512 512" xml:space="preserve" class=""><g><path xmlns="http://www.w3.org/2000/svg" d="m472 56h-216l-48-48h-184c-8.835938 0-16 7.164062-16 16v320c0 8.835938 7.164062 16 16 16h448c8.835938 0 16-7.164062 16-16v-272c0-8.835938-7.164062-16-16-16zm0 0" fill="#1da1f2" data-original="#91cc04" style="" class=""/><g xmlns="http://www.w3.org/2000/svg" fill="#231f20"><path d="m472 48h-212.6875l-45.65625-45.65625c-1.5-1.5-3.535156-2.34375-5.65625-2.34375h-184c-13.253906 0-24 10.746094-24 24v320c0 13.253906 10.746094 24 24 24h312c4.417969 0 8-3.582031 8-8s-3.582031-8-8-8h-312c-4.417969 0-8-3.582031-8-8v-320c0-4.417969 3.582031-8 8-8h180.6875l45.65625 45.65625c1.5 1.5 3.535156 2.34375 5.65625 2.34375h216c4.417969 0 8 3.582031 8 8v152c0 4.417969 3.582031 8 8 8s8-3.582031 8-8v-152c0-13.253906-10.746094-24-24-24zm0 0" fill="#212529" data-original="#231f20" style="" class=""/><path d="m488 288h-56v-56c0-4.417969-3.582031-8-8-8s-8 3.582031-8 8v56h-56c-4.417969 0-8 3.582031-8 8s3.582031 8 8 8h56v56c0 4.417969 3.582031 8 8 8s8-3.582031 8-8v-56h56c4.417969 0 8-3.582031 8-8s-3.582031-8-8-8zm0 0" fill="#212529" data-original="#231f20" style="" class=""/></g></g></svg>
