<?xml version="1.0"?>
<svg xmlns="http://www.w3.org/2000/svg" xmlns:xlink="http://www.w3.org/1999/xlink" xmlns:svgjs="http://svgjs.com/svgjs" version="1.1" width="512" height="512" x="0" y="0" viewBox="0 0 512.003 512.003" style="enable-background:new 0 0 512 512" xml:space="preserve" class=""><g>
<path xmlns="http://www.w3.org/2000/svg" style="" d="M403.748,230.349v-82.595C403.748,66.151,337.597,0,256.005,0  c-81.602,0-147.754,66.151-147.754,147.754v82.595 M161.531,230.349v-82.595c0-52.1,42.384-94.473,94.473-94.473  s94.463,42.374,94.463,94.473v82.595" fill="#d3dae0" data-original="#d3dae0"/>
<g xmlns="http://www.w3.org/2000/svg">
	<path style="" d="M264.623,0.257C261.77,0.093,258.899,0,256.005,0c-81.602,0-147.754,66.151-147.754,147.754v82.595   h17.237v-82.595C125.488,69.045,187.033,4.721,264.623,0.257z" fill="#899ea8" data-original="#899ea8"/>
	<path style="" d="M273.242,53.28c-2.905,0-5.779,0.139-8.619,0.397c48.064,4.368,85.844,44.882,85.844,94.076v82.595   h17.237v-82.595C367.705,95.654,325.332,53.28,273.242,53.28z" fill="#899ea8" data-original="#899ea8"/>
</g>
<rect xmlns="http://www.w3.org/2000/svg" x="59.345" y="230.349" style="" width="393.313" height="281.654" fill="#1da1f2" data-original="#f79f00" class=""/>
<rect xmlns="http://www.w3.org/2000/svg" x="59.345" y="230.349" style="" width="34.473" height="281.654" fill="#0092eb" data-original="#e48900" class=""/>
<path xmlns="http://www.w3.org/2000/svg" style="" d="M298.31,344.737c0-23.367-18.943-42.309-42.309-42.309s-42.309,18.942-42.309,42.309  c0,16.094,8.988,30.088,22.216,37.24l-6.808,52.078h53.803l-6.808-52.078C289.324,374.825,298.31,360.832,298.31,344.737z" fill="#3e3d4c" data-original="#3e3d4c" class=""/>
<g xmlns="http://www.w3.org/2000/svg">
</g>
<g xmlns="http://www.w3.org/2000/svg">
</g>
<g xmlns="http://www.w3.org/2000/svg">
</g>
<g xmlns="http://www.w3.org/2000/svg">
</g>
<g xmlns="http://www.w3.org/2000/svg">
</g>
<g xmlns="http://www.w3.org/2000/svg">
</g>
<g xmlns="http://www.w3.org/2000/svg">
</g>
<g xmlns="http://www.w3.org/2000/svg">
</g>
<g xmlns="http://www.w3.org/2000/svg">
</g>
<g xmlns="http://www.w3.org/2000/svg">
</g>
<g xmlns="http://www.w3.org/2000/svg">
</g>
<g xmlns="http://www.w3.org/2000/svg">
</g>
<g xmlns="http://www.w3.org/2000/svg">
</g>
<g xmlns="http://www.w3.org/2000/svg">
</g>
<g xmlns="http://www.w3.org/2000/svg">
</g>
</g></svg>
